<?xml version="1.0" encoding="utf-8"?>
<!-- Generator: Adobe Illustrator 18.1.1, SVG Export Plug-In . SVG Version: 6.00 Build 0)  -->
<svg version="1.1" id="Layer_1" xmlns="http://www.w3.org/2000/svg" xmlns:xlink="http://www.w3.org/1999/xlink" x="0px" y="0px"
	 viewBox="0 0 100 100" enable-background="new 0 0 100 100" xml:space="preserve">
<g>
	<path fill="#FFFFFF" d="M77.6,45.1h-9.1V36c0-0.6-0.6-1.3-1.3-1.3h-2.5c-0.6,0-1.3,0.6-1.3,1.3v9.1h-9.3c-0.6,0-1.3,0.6-1.3,1.3
		v2.5c0,0.6,0.6,1.3,1.3,1.3h9.1v9.1c0,0.6,0.6,1.3,1.3,1.3H67c0.6,0,1.3-0.6,1.3-1.3v-9.1h9.1c0.6,0,1.3-0.6,1.3-1.3v-2.5
		C78.9,45.8,78.2,45.1,77.6,45.1z"/>
	<path fill="#FFFFFF" d="M46.9,53.2c-1.9-1.3-3.6-3.4-3.8-4c0-1.1,0-1.7,2.5-3.6c3.2-2.5,5.1-5.9,5.1-9.3c0-3.2-1.1-6.1-2.5-8h1.3
		c0.2,0,0.4,0,0.8-0.2l3.6-2.5c0.4-0.4,0.6-0.8,0.4-1.5c-0.2-0.4-0.6-0.8-1.3-0.8H37c-1.7,0-3.6,0.2-5.3,0.8
		c-5.9,2.1-9.9,7-9.9,12.1c0,7.2,5.7,12.7,13.1,12.9c-0.2,0.6-0.2,1.1-0.2,1.7c0,1.1,0.2,2.1,0.8,3.2h-0.2c-7.2,0-13.8,3.6-16.1,8.7
		c-0.6,1.7-1.1,3-1.1,4.4c0,1.3,0.4,2.5,1.1,3.8c1.5,2.8,4.9,4.9,9.3,6.1c2.3,0.6,4.9,0.8,7.4,0.8c2.3,0,4.4-0.2,6.6-0.8
		C48.8,75,53,70.3,53,64.8C53,59.5,51.3,56.3,46.9,53.2z M26.4,65.2c0-3.8,4.9-7.2,10.4-7.2H37c1.3,0,2.3,0.2,3.4,0.4
		c0.4,0.2,0.6,0.4,1.1,0.8c2.5,1.7,4.2,3,4.7,4.7c0.2,0.4,0.2,0.8,0.2,1.3c0,4.7-3.6,7.2-10.4,7.2C30.6,72.4,26.4,69.2,26.4,65.2z
		 M31.4,29.5c0.8-1.1,1.9-1.5,3.2-1.5h0.2c3.6,0,7,4,7.6,8.9c0.4,2.8-0.2,5.1-1.5,6.8c-0.8,1.1-1.9,1.5-3.2,1.5l0,0l0,0
		c-3.4-0.2-7-4.2-7.6-8.9C29.5,33.3,30.2,30.9,31.4,29.5z"/>
</g>
</svg>
