<?xml version="1.0" encoding="utf-8"?>
<!-- Generator: Adobe Illustrator 18.1.1, SVG Export Plug-In . SVG Version: 6.00 Build 0)  -->
<svg version="1.1" id="Layer_1" xmlns="http://www.w3.org/2000/svg" xmlns:xlink="http://www.w3.org/1999/xlink" x="0px" y="0px"
	 viewBox="0 0 360 360" enable-background="new 0 0 360 360" xml:space="preserve">
<path fill="#FFFFFF" d="M284.5,119c-7.2,3.2-15,5.4-23.2,6.4c8.3-5,14.7-12.9,17.8-22.3c-7.8,4.6-16.4,8-25.6,9.8
	c-7.4-7.8-17.9-12.8-29.5-12.8c-22.3,0-40.4,18.1-40.4,40.4c0,3.2,0.4,6.2,1,9.2c-33.6-1.7-63.3-17.8-83.2-42.2
	c-3.5,6-5.5,12.9-5.5,20.3c0,14,7.1,26.4,18,33.6c-6.6-0.2-12.8-2-18.3-5.1c0,0.2,0,0.3,0,0.5c0,19.6,13.9,35.9,32.4,39.6
	c-3.4,0.9-7,1.4-10.6,1.4c-2.6,0-5.1-0.3-7.6-0.7c5.1,16,20.1,27.7,37.7,28c-13.8,10.8-31.2,17.3-50.2,17.3c-3.3,0-6.5-0.2-9.6-0.6
	c17.9,11.5,39.1,18.1,61.9,18.1c74.3,0,114.9-61.5,114.9-114.9c0-1.8,0-3.5-0.1-5.2C272.2,134.2,279.1,127.1,284.5,119z"/>
</svg>
